# xmcd
#
# Track frame offsets: 
#        182
#        12420
#        29232
#        45457
#        56470
#        74932
#        84945
#        99632
#        116382
#        135607
#        151957
#        166545
#        182932
#        195732
#
# Disc length: 2785 seconds
#
# Revision: 2
# Processed by: cddbd v1.5.2PL0 Copyright (c) Steve Scherf et al.
# Submitted via: ExactAudioCopy v0.99pb4
#
DISCID=bc0adf0e
DTITLE=Various Artist - Country No1's Volume 2 [CD 3)
DYEAR=1989
DGENRE=Country
TTITLE0=Dolly Parton - The Bargain Store
TTITLE1=Alabama - Take Me Down
TTITLE2=The Judds - Change Of Heart
TTITLE3=Charlie Rich - There Won't Be Anymore
TTITLE4=K T Oslin - Do Ya
TTITLE5=Charley Pride - Is Anybody Going To San Antone
TTITLE6=Waylon Jennings - Luckenbach Texas
TTITLE7=Alabama - Touch Me When We're Dancing
TTITLE8=Ronnie Milsap - Lost In The Fifties Tonight
TTITLE9=Earl Thomas Conley - Once In A Blue Moon
TTITLE10=Edddy Rabbit - I Wanna Dance With You
TTITLE11=Alabama - Feels So Right
TTITLE12=Charlie Pride - I'd Rather Love You
TTITLE13=Waylon Jennings - Are You Sure Hank Done It This Way
EXTD=COUNTRY No1's Volume 2 (3 Disc-Set]\nBMG Records (UK) Ltd.\nCD 74
EXTD=335\nEAN: 0035627433528
EXTT0=
EXTT1=
EXTT2=
EXTT3=
EXTT4=
EXTT5=
EXTT6=
EXTT7=
EXTT8=
EXTT9=
EXTT10=
EXTT11=
EXTT12=
EXTT13=
PLAYORDER=
